# xmcd CD database file generated by OrangeCD 4.3
#
# Track frame offsets:
#	150
#	14600
#	33815
#	66838
#	82813
#	98375
#	119075
#	146513
#	170038
#	204650
#	230138
#
# Disc length: 3402 seconds
#
# Revision: 2
# Processed by: cddbd v1.4PL0 Copyright (c) Steve Scherf et al.
# Submitted via: OrangeCD 4.3
#
DISCID=930d480b
DTITLE=The Animals  -  Canned Heat - Red Hot Rhythm and Blues
DYEAR=1900
DGENRE=Blues
TTITLE0=The Animals - Let It Rock
TTITLE1=The Animals - Gotta Find My Baby
TTITLE2=The Animals - Bo Diddley
TTITLE3=The Animals - Almost Grown
TTITLE4=The Animals - Dimples
TTITLE5=The Animals - Boom Boom
TTITLE6=Canned Heat - It Hurts Me Too
TTITLE7=Canned Heat - I'd Rather Be A Devil
TTITLE8=Canned Heat - I Wish You Would
TTITLE9=Canned Heat - Dust My Broom
TTITLE10=Canned Heat - Bull Frog Blues
EXTD=
EXTT0=
EXTT1=
EXTT2=
EXTT3=
EXTT4=
EXTT5=
EXTT6=
EXTT7=
EXTT8=
EXTT9=
EXTT10=
PLAYORDER=
